<svg xmlns="http://www.w3.org/2000/svg" version="1.1" xmlns:xlink="http://www.w3.org/1999/xlink" xmlns:svgjs="http://svgjs.dev/svgjs" width="1440" height="560" preserveAspectRatio="none" viewBox="0 0 1440 560"><g mask="url(&quot;#SvgjsMask1003&quot;)" fill="none"><rect width="1440" height="560" x="0" y="0" fill="rgba(0, 59, 149, 1)"></rect><path d="M1488 560L0 560 L0 331.88Q18.37 278.25, 72 296.61Q113.87 266.48, 144 308.34Q206.62 298.96, 216 361.58Q243.75 317.33, 288 345.09Q318.4 255.49, 408 285.89Q488.96 246.85, 528 327.81Q601.07 280.88, 648 353.95Q665.87 299.82, 720 317.69Q746.88 272.56, 792 299.44Q847.3 282.74, 864 338.03Q912.39 266.42, 984 314.82Q1032.38 243.2, 1104 291.58Q1165.16 280.75, 1176 341.91Q1205.12 251.02, 1296 280.14Q1378.22 242.36, 1416 324.58Q1457.32 293.9, 1488 335.22z" fill="#182f5d"></path><path d="M1464 560L0 560 L0 366.25Q42.19 336.44, 72 378.63Q133.68 368.31, 144 429.99Q147.4 361.39, 216 364.79Q244.75 321.54, 288 350.29Q338.56 328.86, 360 379.42Q410.96 358.38, 432 409.34Q498.3 355.64, 552 421.94Q595.37 393.31, 624 436.67Q659.17 351.84, 744 387.01Q789.25 360.26, 816 405.51Q887.61 357.12, 936 428.72Q972.45 345.17, 1056 381.62Q1076.44 330.06, 1128 350.51Q1210.11 312.62, 1248 394.73Q1274.13 348.86, 1320 374.99Q1378.53 361.52, 1392 420.06Q1415.8 371.86, 1464 395.66z" fill="#25467d"></path><path d="M1512 560L0 560 L0 454.04Q27.93 409.97, 72 437.89Q147.5 393.39, 192 468.9Q259.38 416.28, 312 483.66Q344.45 396.11, 432 428.56Q507.03 383.59, 552 458.61Q611.84 446.45, 624 506.29Q666.06 428.36, 744 470.42Q770.69 425.11, 816 451.8Q869.63 433.43, 888 487.06Q918.9 397.96, 1008 428.86Q1056 404.86, 1080 452.86Q1147.13 447.99, 1152 515.12Q1191.14 434.26, 1272 473.4Q1342.33 423.73, 1392 494.05Q1424.09 406.13, 1512 438.22z" fill="rgba(0, 108, 228, 1)"></path><path d="M1512 560L0 560 L0 526.25Q48.22 454.47, 120 502.68Q161.76 472.44, 192 514.2Q269.12 471.32, 312 548.43Q367.28 531.71, 384 586.99Q434.7 517.69, 504 568.39Q505.68 498.07, 576 499.75Q617.22 468.97, 648 510.19Q738.38 480.57, 768 570.94Q809.62 492.56, 888 534.18Q940.2 466.38, 1008 518.58Q1096.26 486.84, 1128 575.1Q1149.27 524.37, 1200 545.63Q1244.38 470.01, 1320 514.4Q1379.75 502.15, 1392 561.91Q1440.67 490.59, 1512 539.26z" fill="white"></path></g><defs><mask id="SvgjsMask1003"><rect width="1440" height="560" fill="#ffffff"></rect></mask></defs></svg>